<mxfile host="app.diagrams.net" modified="2022-06-29T11:11:25.268Z" agent="5.0 (Macintosh; Intel Mac OS X 10_15_7) AppleWebKit/537.36 (KHTML, like Gecko) Chrome/103.0.0.0 Safari/537.36" etag="5cvrED8yEvBtzHhiM2TH" version="20.0.3" type="github">
  <diagram id="H9ZrI43M73sGWypSq_Jb" name="Page-1">
    <mxGraphModel dx="1178" dy="623" grid="1" gridSize="10" guides="1" tooltips="1" connect="1" arrows="1" fold="1" page="1" pageScale="1" pageWidth="827" pageHeight="1169" math="0" shadow="0">
      <root>
        <mxCell id="0" />
        <mxCell id="1" parent="0" />
        <mxCell id="NFxBXwBvF9NyGnt5mvOB-1" value="start&amp;nbsp;" style="ellipse;whiteSpace=wrap;html=1;" vertex="1" parent="1">
          <mxGeometry x="10" y="30" width="100" height="80" as="geometry" />
        </mxCell>
        <mxCell id="NFxBXwBvF9NyGnt5mvOB-146" value="" style="group" vertex="1" connectable="0" parent="1">
          <mxGeometry x="110" y="37.5" width="610" height="1012.5" as="geometry" />
        </mxCell>
        <mxCell id="NFxBXwBvF9NyGnt5mvOB-5" value="" style="endArrow=classic;html=1;rounded=0;" edge="1" parent="NFxBXwBvF9NyGnt5mvOB-146">
          <mxGeometry width="50" height="50" relative="1" as="geometry">
            <mxPoint y="32" as="sourcePoint" />
            <mxPoint x="60" y="32" as="targetPoint" />
          </mxGeometry>
        </mxCell>
        <mxCell id="NFxBXwBvF9NyGnt5mvOB-6" value="เลือกวาระที่ต้องการ" style="rounded=1;whiteSpace=wrap;html=1;" vertex="1" parent="NFxBXwBvF9NyGnt5mvOB-146">
          <mxGeometry x="60" y="2.5" width="120" height="60" as="geometry" />
        </mxCell>
        <mxCell id="NFxBXwBvF9NyGnt5mvOB-8" value="" style="endArrow=classic;html=1;rounded=0;" edge="1" parent="NFxBXwBvF9NyGnt5mvOB-146">
          <mxGeometry width="50" height="50" relative="1" as="geometry">
            <mxPoint x="180" y="32.5" as="sourcePoint" />
            <mxPoint x="250" y="32.5" as="targetPoint" />
          </mxGeometry>
        </mxCell>
        <mxCell id="NFxBXwBvF9NyGnt5mvOB-9" value="เรียก Hub" style="rounded=1;whiteSpace=wrap;html=1;" vertex="1" parent="NFxBXwBvF9NyGnt5mvOB-146">
          <mxGeometry x="250" width="120" height="65" as="geometry" />
        </mxCell>
        <mxCell id="NFxBXwBvF9NyGnt5mvOB-16" value="ทำการอัพเดทข้อมูลใน Hub โดยใช้ &lt;br&gt;Hub : UpdateMonitorAgenda" style="rounded=1;whiteSpace=wrap;html=1;" vertex="1" parent="NFxBXwBvF9NyGnt5mvOB-146">
          <mxGeometry x="210" y="252.5" width="200" height="80" as="geometry" />
        </mxCell>
        <mxCell id="NFxBXwBvF9NyGnt5mvOB-17" value="เเสดงแจ้งเตือนระบบว่าไม่สามารถเชื่อมต่อได้" style="rounded=1;whiteSpace=wrap;html=1;" vertex="1" parent="NFxBXwBvF9NyGnt5mvOB-146">
          <mxGeometry x="430" y="132.5" width="120" height="60" as="geometry" />
        </mxCell>
        <mxCell id="NFxBXwBvF9NyGnt5mvOB-21" value="" style="group" vertex="1" connectable="0" parent="NFxBXwBvF9NyGnt5mvOB-146">
          <mxGeometry x="260" y="65" width="160" height="177.5" as="geometry" />
        </mxCell>
        <mxCell id="NFxBXwBvF9NyGnt5mvOB-10" value="เชื่อมต่อได้" style="rhombus;whiteSpace=wrap;html=1;rounded=1;" vertex="1" parent="NFxBXwBvF9NyGnt5mvOB-21">
          <mxGeometry x="10" y="57.5" width="80" height="80" as="geometry" />
        </mxCell>
        <mxCell id="NFxBXwBvF9NyGnt5mvOB-11" value="" style="endArrow=classic;html=1;rounded=0;" edge="1" parent="NFxBXwBvF9NyGnt5mvOB-21">
          <mxGeometry width="50" height="50" relative="1" as="geometry">
            <mxPoint x="49.5" as="sourcePoint" />
            <mxPoint x="49.5" y="60" as="targetPoint" />
          </mxGeometry>
        </mxCell>
        <mxCell id="NFxBXwBvF9NyGnt5mvOB-12" value="" style="endArrow=classic;html=1;rounded=0;" edge="1" parent="NFxBXwBvF9NyGnt5mvOB-21">
          <mxGeometry width="50" height="50" relative="1" as="geometry">
            <mxPoint x="90" y="97" as="sourcePoint" />
            <mxPoint x="160" y="97" as="targetPoint" />
          </mxGeometry>
        </mxCell>
        <mxCell id="NFxBXwBvF9NyGnt5mvOB-13" value="" style="endArrow=classic;html=1;rounded=0;" edge="1" parent="NFxBXwBvF9NyGnt5mvOB-21">
          <mxGeometry width="50" height="50" relative="1" as="geometry">
            <mxPoint x="50" y="137.5" as="sourcePoint" />
            <mxPoint x="50" y="177.5" as="targetPoint" />
          </mxGeometry>
        </mxCell>
        <mxCell id="NFxBXwBvF9NyGnt5mvOB-14" value="ไม่ได้" style="text;html=1;align=center;verticalAlign=middle;resizable=0;points=[];autosize=1;strokeColor=none;fillColor=none;" vertex="1" parent="NFxBXwBvF9NyGnt5mvOB-21">
          <mxGeometry x="90" y="57.5" width="50" height="30" as="geometry" />
        </mxCell>
        <mxCell id="NFxBXwBvF9NyGnt5mvOB-15" value="ได้" style="text;html=1;align=center;verticalAlign=middle;resizable=0;points=[];autosize=1;strokeColor=none;fillColor=none;" vertex="1" parent="NFxBXwBvF9NyGnt5mvOB-21">
          <mxGeometry y="142.5" width="40" height="30" as="geometry" />
        </mxCell>
        <mxCell id="NFxBXwBvF9NyGnt5mvOB-20" value="" style="edgeStyle=orthogonalEdgeStyle;rounded=0;orthogonalLoop=1;jettySize=auto;html=1;" edge="1" parent="NFxBXwBvF9NyGnt5mvOB-146" source="NFxBXwBvF9NyGnt5mvOB-10" target="NFxBXwBvF9NyGnt5mvOB-9">
          <mxGeometry relative="1" as="geometry" />
        </mxCell>
        <mxCell id="NFxBXwBvF9NyGnt5mvOB-22" value="" style="group" vertex="1" connectable="0" parent="NFxBXwBvF9NyGnt5mvOB-146">
          <mxGeometry x="260" y="492.5" width="180" height="210" as="geometry" />
        </mxCell>
        <mxCell id="NFxBXwBvF9NyGnt5mvOB-23" value="สถานะ S" style="rhombus;whiteSpace=wrap;html=1;rounded=1;" vertex="1" parent="NFxBXwBvF9NyGnt5mvOB-22">
          <mxGeometry x="10" y="57.5" width="80" height="80" as="geometry" />
        </mxCell>
        <mxCell id="NFxBXwBvF9NyGnt5mvOB-24" value="" style="endArrow=classic;html=1;rounded=0;" edge="1" parent="NFxBXwBvF9NyGnt5mvOB-22">
          <mxGeometry width="50" height="50" relative="1" as="geometry">
            <mxPoint x="49.5" as="sourcePoint" />
            <mxPoint x="49.5" y="60" as="targetPoint" />
          </mxGeometry>
        </mxCell>
        <mxCell id="NFxBXwBvF9NyGnt5mvOB-25" value="" style="endArrow=classic;html=1;rounded=0;" edge="1" parent="NFxBXwBvF9NyGnt5mvOB-22">
          <mxGeometry width="50" height="50" relative="1" as="geometry">
            <mxPoint x="90" y="97" as="sourcePoint" />
            <mxPoint x="160" y="97" as="targetPoint" />
          </mxGeometry>
        </mxCell>
        <mxCell id="NFxBXwBvF9NyGnt5mvOB-26" value="" style="endArrow=classic;html=1;rounded=0;" edge="1" parent="NFxBXwBvF9NyGnt5mvOB-22">
          <mxGeometry width="50" height="50" relative="1" as="geometry">
            <mxPoint x="50" y="137.5" as="sourcePoint" />
            <mxPoint x="50" y="177.5" as="targetPoint" />
          </mxGeometry>
        </mxCell>
        <mxCell id="NFxBXwBvF9NyGnt5mvOB-27" value="ไม่ใช่" style="text;html=1;align=center;verticalAlign=middle;resizable=0;points=[];autosize=1;strokeColor=none;fillColor=none;" vertex="1" parent="NFxBXwBvF9NyGnt5mvOB-22">
          <mxGeometry x="90" y="57.5" width="50" height="30" as="geometry" />
        </mxCell>
        <mxCell id="NFxBXwBvF9NyGnt5mvOB-28" value="ใช่" style="text;html=1;align=center;verticalAlign=middle;resizable=0;points=[];autosize=1;strokeColor=none;fillColor=none;" vertex="1" parent="NFxBXwBvF9NyGnt5mvOB-22">
          <mxGeometry y="142.5" width="40" height="30" as="geometry" />
        </mxCell>
        <mxCell id="NFxBXwBvF9NyGnt5mvOB-30" value="" style="endArrow=classic;html=1;rounded=0;" edge="1" parent="NFxBXwBvF9NyGnt5mvOB-146">
          <mxGeometry width="50" height="50" relative="1" as="geometry">
            <mxPoint x="309.5" y="342.5" as="sourcePoint" />
            <mxPoint x="309.5" y="412.5" as="targetPoint" />
          </mxGeometry>
        </mxCell>
        <mxCell id="NFxBXwBvF9NyGnt5mvOB-31" value="ตรวจสอบสถานะข้อมูล" style="rounded=1;whiteSpace=wrap;html=1;" vertex="1" parent="NFxBXwBvF9NyGnt5mvOB-146">
          <mxGeometry x="225" y="422.5" width="170" height="60" as="geometry" />
        </mxCell>
        <mxCell id="NFxBXwBvF9NyGnt5mvOB-32" value="แสดงการแจ้งเตือนข้อผิดพลาด" style="rounded=1;whiteSpace=wrap;html=1;" vertex="1" parent="NFxBXwBvF9NyGnt5mvOB-146">
          <mxGeometry x="430" y="562.5" width="120" height="60" as="geometry" />
        </mxCell>
        <mxCell id="NFxBXwBvF9NyGnt5mvOB-33" value="อัพเดทข้อมูลวาระ" style="rounded=1;whiteSpace=wrap;html=1;" vertex="1" parent="NFxBXwBvF9NyGnt5mvOB-146">
          <mxGeometry x="250" y="682.5" width="120" height="60" as="geometry" />
        </mxCell>
        <mxCell id="NFxBXwBvF9NyGnt5mvOB-35" value="" style="endArrow=classic;html=1;rounded=0;" edge="1" parent="NFxBXwBvF9NyGnt5mvOB-146">
          <mxGeometry width="50" height="50" relative="1" as="geometry">
            <mxPoint x="309.5" y="752.5" as="sourcePoint" />
            <mxPoint x="310" y="812.5" as="targetPoint" />
          </mxGeometry>
        </mxCell>
        <mxCell id="NFxBXwBvF9NyGnt5mvOB-36" value="กรองข้อมูลคำถามที่ตรงกับวาระที่กรอง" style="rounded=1;whiteSpace=wrap;html=1;" vertex="1" parent="NFxBXwBvF9NyGnt5mvOB-146">
          <mxGeometry x="250" y="812.5" width="120" height="60" as="geometry" />
        </mxCell>
        <mxCell id="NFxBXwBvF9NyGnt5mvOB-37" value="นำข้อมูลไปแสดงผล" style="rounded=1;whiteSpace=wrap;html=1;" vertex="1" parent="NFxBXwBvF9NyGnt5mvOB-146">
          <mxGeometry x="250" y="942.5" width="120" height="60" as="geometry" />
        </mxCell>
        <mxCell id="NFxBXwBvF9NyGnt5mvOB-38" value="" style="endArrow=classic;html=1;rounded=0;" edge="1" parent="NFxBXwBvF9NyGnt5mvOB-146">
          <mxGeometry width="50" height="50" relative="1" as="geometry">
            <mxPoint x="309.5" y="882.5" as="sourcePoint" />
            <mxPoint x="310" y="942.5" as="targetPoint" />
          </mxGeometry>
        </mxCell>
        <mxCell id="NFxBXwBvF9NyGnt5mvOB-39" value="" style="endArrow=classic;html=1;rounded=0;" edge="1" parent="NFxBXwBvF9NyGnt5mvOB-146">
          <mxGeometry width="50" height="50" relative="1" as="geometry">
            <mxPoint x="370" y="972" as="sourcePoint" />
            <mxPoint x="440" y="972" as="targetPoint" />
          </mxGeometry>
        </mxCell>
        <mxCell id="NFxBXwBvF9NyGnt5mvOB-40" value="end" style="ellipse;whiteSpace=wrap;html=1;" vertex="1" parent="NFxBXwBvF9NyGnt5mvOB-146">
          <mxGeometry x="450" y="932.5" width="100" height="80" as="geometry" />
        </mxCell>
        <mxCell id="NFxBXwBvF9NyGnt5mvOB-41" value="" style="endArrow=none;html=1;rounded=0;" edge="1" parent="NFxBXwBvF9NyGnt5mvOB-146">
          <mxGeometry width="50" height="50" relative="1" as="geometry">
            <mxPoint x="550" y="162.5" as="sourcePoint" />
            <mxPoint x="610" y="162.5" as="targetPoint" />
          </mxGeometry>
        </mxCell>
        <mxCell id="NFxBXwBvF9NyGnt5mvOB-42" value="" style="endArrow=none;html=1;rounded=0;" edge="1" parent="NFxBXwBvF9NyGnt5mvOB-146">
          <mxGeometry width="50" height="50" relative="1" as="geometry">
            <mxPoint x="550" y="592" as="sourcePoint" />
            <mxPoint x="610" y="592" as="targetPoint" />
          </mxGeometry>
        </mxCell>
        <mxCell id="NFxBXwBvF9NyGnt5mvOB-45" value="" style="endArrow=none;html=1;rounded=0;" edge="1" parent="NFxBXwBvF9NyGnt5mvOB-146">
          <mxGeometry width="50" height="50" relative="1" as="geometry">
            <mxPoint x="610" y="162.5" as="sourcePoint" />
            <mxPoint x="610" y="972.5" as="targetPoint" />
          </mxGeometry>
        </mxCell>
        <mxCell id="NFxBXwBvF9NyGnt5mvOB-47" value="" style="endArrow=classic;html=1;rounded=0;entryX=1;entryY=0.5;entryDx=0;entryDy=0;" edge="1" parent="NFxBXwBvF9NyGnt5mvOB-146" target="NFxBXwBvF9NyGnt5mvOB-40">
          <mxGeometry width="50" height="50" relative="1" as="geometry">
            <mxPoint x="610" y="972.5" as="sourcePoint" />
            <mxPoint x="660" y="922.5" as="targetPoint" />
          </mxGeometry>
        </mxCell>
        <mxCell id="NFxBXwBvF9NyGnt5mvOB-124" value="start&amp;nbsp;" style="ellipse;whiteSpace=wrap;html=1;" vertex="1" parent="1">
          <mxGeometry x="20" y="1200" width="100" height="80" as="geometry" />
        </mxCell>
        <mxCell id="NFxBXwBvF9NyGnt5mvOB-125" value="" style="endArrow=classic;html=1;rounded=0;" edge="1" parent="1">
          <mxGeometry width="50" height="50" relative="1" as="geometry">
            <mxPoint x="120" y="1240" as="sourcePoint" />
            <mxPoint x="170" y="1240" as="targetPoint" />
          </mxGeometry>
        </mxCell>
        <mxCell id="NFxBXwBvF9NyGnt5mvOB-126" value="เลือกวาระที่ต้องการ" style="rounded=1;whiteSpace=wrap;html=1;" vertex="1" parent="1">
          <mxGeometry x="180" y="1210" width="120" height="60" as="geometry" />
        </mxCell>
        <mxCell id="NFxBXwBvF9NyGnt5mvOB-128" value="เรียก Hub" style="rounded=1;whiteSpace=wrap;html=1;" vertex="1" parent="1">
          <mxGeometry x="360" y="1210" width="120" height="60" as="geometry" />
        </mxCell>
        <mxCell id="NFxBXwBvF9NyGnt5mvOB-129" value="" style="edgeStyle=orthogonalEdgeStyle;rounded=0;orthogonalLoop=1;jettySize=auto;html=1;" edge="1" parent="1" source="NFxBXwBvF9NyGnt5mvOB-126" target="NFxBXwBvF9NyGnt5mvOB-128">
          <mxGeometry relative="1" as="geometry" />
        </mxCell>
        <mxCell id="NFxBXwBvF9NyGnt5mvOB-133" value="เเสดงแจ้งเตือนระบบว่าไม่สามารถเชื่อมต่อได้" style="whiteSpace=wrap;html=1;rounded=1;" vertex="1" parent="1">
          <mxGeometry x="520" y="1340" width="120" height="60" as="geometry" />
        </mxCell>
        <mxCell id="NFxBXwBvF9NyGnt5mvOB-135" value="ไม่ได้" style="text;html=1;align=center;verticalAlign=middle;resizable=0;points=[];autosize=1;strokeColor=none;fillColor=none;" vertex="1" parent="1">
          <mxGeometry x="460" y="1340" width="50" height="30" as="geometry" />
        </mxCell>
        <mxCell id="NFxBXwBvF9NyGnt5mvOB-139" value="ตรวจสอบสถานะข้อมูล" style="rounded=1;whiteSpace=wrap;html=1;" vertex="1" parent="1">
          <mxGeometry x="340" y="1590" width="160" height="60" as="geometry" />
        </mxCell>
        <mxCell id="NFxBXwBvF9NyGnt5mvOB-140" value="" style="group" vertex="1" connectable="0" parent="1">
          <mxGeometry x="370" y="1330" width="90" height="130" as="geometry" />
        </mxCell>
        <mxCell id="NFxBXwBvF9NyGnt5mvOB-137" value="" style="edgeStyle=orthogonalEdgeStyle;rounded=0;orthogonalLoop=1;jettySize=auto;html=1;" edge="1" parent="NFxBXwBvF9NyGnt5mvOB-140" source="NFxBXwBvF9NyGnt5mvOB-131">
          <mxGeometry relative="1" as="geometry">
            <mxPoint x="50" y="130" as="targetPoint" />
          </mxGeometry>
        </mxCell>
        <mxCell id="NFxBXwBvF9NyGnt5mvOB-131" value="เชื่อมต่อได้" style="rhombus;whiteSpace=wrap;html=1;rounded=1;" vertex="1" parent="NFxBXwBvF9NyGnt5mvOB-140">
          <mxGeometry x="10" width="80" height="80" as="geometry" />
        </mxCell>
        <mxCell id="NFxBXwBvF9NyGnt5mvOB-138" value="ได้" style="text;html=1;align=center;verticalAlign=middle;resizable=0;points=[];autosize=1;strokeColor=none;fillColor=none;" vertex="1" parent="NFxBXwBvF9NyGnt5mvOB-140">
          <mxGeometry y="85" width="40" height="30" as="geometry" />
        </mxCell>
        <mxCell id="NFxBXwBvF9NyGnt5mvOB-132" value="" style="edgeStyle=orthogonalEdgeStyle;rounded=0;orthogonalLoop=1;jettySize=auto;html=1;" edge="1" parent="1" source="NFxBXwBvF9NyGnt5mvOB-128" target="NFxBXwBvF9NyGnt5mvOB-131">
          <mxGeometry relative="1" as="geometry" />
        </mxCell>
        <mxCell id="NFxBXwBvF9NyGnt5mvOB-134" value="" style="edgeStyle=orthogonalEdgeStyle;rounded=0;orthogonalLoop=1;jettySize=auto;html=1;" edge="1" parent="1" source="NFxBXwBvF9NyGnt5mvOB-131" target="NFxBXwBvF9NyGnt5mvOB-133">
          <mxGeometry relative="1" as="geometry" />
        </mxCell>
        <mxCell id="NFxBXwBvF9NyGnt5mvOB-141" value="" style="group" vertex="1" connectable="0" parent="1">
          <mxGeometry x="370" y="1700" width="90" height="130" as="geometry" />
        </mxCell>
        <mxCell id="NFxBXwBvF9NyGnt5mvOB-142" value="" style="edgeStyle=orthogonalEdgeStyle;rounded=0;orthogonalLoop=1;jettySize=auto;html=1;" edge="1" parent="NFxBXwBvF9NyGnt5mvOB-141" source="NFxBXwBvF9NyGnt5mvOB-143">
          <mxGeometry relative="1" as="geometry">
            <mxPoint x="50" y="130" as="targetPoint" />
          </mxGeometry>
        </mxCell>
        <mxCell id="NFxBXwBvF9NyGnt5mvOB-143" value="สถานะ S" style="rhombus;whiteSpace=wrap;html=1;rounded=1;" vertex="1" parent="NFxBXwBvF9NyGnt5mvOB-141">
          <mxGeometry x="10" width="80" height="80" as="geometry" />
        </mxCell>
        <mxCell id="NFxBXwBvF9NyGnt5mvOB-144" value="ใช่" style="text;html=1;align=center;verticalAlign=middle;resizable=0;points=[];autosize=1;strokeColor=none;fillColor=none;" vertex="1" parent="NFxBXwBvF9NyGnt5mvOB-141">
          <mxGeometry y="85" width="40" height="30" as="geometry" />
        </mxCell>
        <mxCell id="NFxBXwBvF9NyGnt5mvOB-145" value="" style="edgeStyle=orthogonalEdgeStyle;rounded=0;orthogonalLoop=1;jettySize=auto;html=1;" edge="1" parent="1" source="NFxBXwBvF9NyGnt5mvOB-139" target="NFxBXwBvF9NyGnt5mvOB-143">
          <mxGeometry relative="1" as="geometry" />
        </mxCell>
        <mxCell id="NFxBXwBvF9NyGnt5mvOB-147" value="แสดงการแจ้งเตือนข้อผิดพลาด" style="whiteSpace=wrap;html=1;rounded=1;" vertex="1" parent="1">
          <mxGeometry x="510" y="1710" width="120" height="60" as="geometry" />
        </mxCell>
        <mxCell id="NFxBXwBvF9NyGnt5mvOB-148" value="" style="edgeStyle=orthogonalEdgeStyle;rounded=0;orthogonalLoop=1;jettySize=auto;html=1;" edge="1" parent="1" source="NFxBXwBvF9NyGnt5mvOB-143" target="NFxBXwBvF9NyGnt5mvOB-147">
          <mxGeometry relative="1" as="geometry" />
        </mxCell>
        <mxCell id="NFxBXwBvF9NyGnt5mvOB-150" value="" style="edgeStyle=orthogonalEdgeStyle;rounded=0;orthogonalLoop=1;jettySize=auto;html=1;" edge="1" parent="1" source="NFxBXwBvF9NyGnt5mvOB-149" target="NFxBXwBvF9NyGnt5mvOB-139">
          <mxGeometry relative="1" as="geometry" />
        </mxCell>
        <mxCell id="NFxBXwBvF9NyGnt5mvOB-149" value="ทำการอัพเดทข้อมูลใน Hub โดยใช้ &lt;br&gt;Hub : UpdateAgendaStatus" style="rounded=1;whiteSpace=wrap;html=1;" vertex="1" parent="1">
          <mxGeometry x="320" y="1470" width="200" height="80" as="geometry" />
        </mxCell>
        <mxCell id="NFxBXwBvF9NyGnt5mvOB-151" value="ไม่ใช่" style="text;html=1;align=center;verticalAlign=middle;resizable=0;points=[];autosize=1;strokeColor=none;fillColor=none;" vertex="1" parent="1">
          <mxGeometry x="445" y="1705" width="50" height="30" as="geometry" />
        </mxCell>
        <mxCell id="NFxBXwBvF9NyGnt5mvOB-152" value="อัพเดทข้อมูลวาระ" style="rounded=1;whiteSpace=wrap;html=1;" vertex="1" parent="1">
          <mxGeometry x="340" y="1840" width="160" height="60" as="geometry" />
        </mxCell>
        <mxCell id="NFxBXwBvF9NyGnt5mvOB-153" value="นำไปแสดงผล" style="rounded=1;whiteSpace=wrap;html=1;" vertex="1" parent="1">
          <mxGeometry x="360" y="1960" width="120" height="60" as="geometry" />
        </mxCell>
        <mxCell id="NFxBXwBvF9NyGnt5mvOB-154" value="" style="edgeStyle=orthogonalEdgeStyle;rounded=0;orthogonalLoop=1;jettySize=auto;html=1;" edge="1" parent="1" source="NFxBXwBvF9NyGnt5mvOB-152" target="NFxBXwBvF9NyGnt5mvOB-153">
          <mxGeometry relative="1" as="geometry" />
        </mxCell>
        <mxCell id="NFxBXwBvF9NyGnt5mvOB-155" value="end" style="ellipse;whiteSpace=wrap;html=1;" vertex="1" parent="1">
          <mxGeometry x="640" y="1950" width="100" height="80" as="geometry" />
        </mxCell>
        <mxCell id="NFxBXwBvF9NyGnt5mvOB-158" style="edgeStyle=orthogonalEdgeStyle;rounded=0;orthogonalLoop=1;jettySize=auto;html=1;strokeColor=default;" edge="1" parent="1" source="NFxBXwBvF9NyGnt5mvOB-133" target="NFxBXwBvF9NyGnt5mvOB-155">
          <mxGeometry relative="1" as="geometry" />
        </mxCell>
        <mxCell id="NFxBXwBvF9NyGnt5mvOB-163" style="edgeStyle=orthogonalEdgeStyle;rounded=0;orthogonalLoop=1;jettySize=auto;html=1;strokeColor=default;" edge="1" parent="1" source="NFxBXwBvF9NyGnt5mvOB-153" target="NFxBXwBvF9NyGnt5mvOB-155">
          <mxGeometry relative="1" as="geometry" />
        </mxCell>
        <mxCell id="NFxBXwBvF9NyGnt5mvOB-162" value="" style="endArrow=none;html=1;rounded=0;strokeColor=default;" edge="1" parent="1">
          <mxGeometry width="50" height="50" relative="1" as="geometry">
            <mxPoint x="630" y="1745" as="sourcePoint" />
            <mxPoint x="690" y="1745" as="targetPoint" />
          </mxGeometry>
        </mxCell>
        <mxCell id="NFxBXwBvF9NyGnt5mvOB-165" value="" style="group" vertex="1" connectable="0" parent="1">
          <mxGeometry x="30" y="2370" width="720" height="830" as="geometry" />
        </mxCell>
        <mxCell id="NFxBXwBvF9NyGnt5mvOB-166" value="start&amp;nbsp;" style="ellipse;whiteSpace=wrap;html=1;" vertex="1" parent="NFxBXwBvF9NyGnt5mvOB-165">
          <mxGeometry width="100" height="80" as="geometry" />
        </mxCell>
        <mxCell id="NFxBXwBvF9NyGnt5mvOB-167" value="" style="endArrow=classic;html=1;rounded=0;" edge="1" parent="NFxBXwBvF9NyGnt5mvOB-165">
          <mxGeometry width="50" height="50" relative="1" as="geometry">
            <mxPoint x="100" y="40" as="sourcePoint" />
            <mxPoint x="150" y="40" as="targetPoint" />
          </mxGeometry>
        </mxCell>
        <mxCell id="NFxBXwBvF9NyGnt5mvOB-168" value="เลือกประเภทคำถาม" style="rounded=1;whiteSpace=wrap;html=1;" vertex="1" parent="NFxBXwBvF9NyGnt5mvOB-165">
          <mxGeometry x="160" y="10" width="120" height="60" as="geometry" />
        </mxCell>
        <mxCell id="NFxBXwBvF9NyGnt5mvOB-169" value="กรองคำถามทั้งหมดจากประเภทที่เลือก" style="rounded=1;whiteSpace=wrap;html=1;" vertex="1" parent="NFxBXwBvF9NyGnt5mvOB-165">
          <mxGeometry x="335" y="5" width="130" height="70" as="geometry" />
        </mxCell>
        <mxCell id="NFxBXwBvF9NyGnt5mvOB-170" value="" style="edgeStyle=orthogonalEdgeStyle;rounded=0;orthogonalLoop=1;jettySize=auto;html=1;" edge="1" parent="NFxBXwBvF9NyGnt5mvOB-165" source="NFxBXwBvF9NyGnt5mvOB-168" target="NFxBXwBvF9NyGnt5mvOB-169">
          <mxGeometry relative="1" as="geometry" />
        </mxCell>
        <mxCell id="NFxBXwBvF9NyGnt5mvOB-178" value="" style="edgeStyle=orthogonalEdgeStyle;rounded=0;orthogonalLoop=1;jettySize=auto;html=1;" edge="1" parent="NFxBXwBvF9NyGnt5mvOB-165" source="NFxBXwBvF9NyGnt5mvOB-169">
          <mxGeometry relative="1" as="geometry">
            <mxPoint x="400" y="125" as="targetPoint" />
          </mxGeometry>
        </mxCell>
        <mxCell id="NFxBXwBvF9NyGnt5mvOB-203" style="edgeStyle=orthogonalEdgeStyle;rounded=0;orthogonalLoop=1;jettySize=auto;html=1;strokeColor=default;" edge="1" parent="NFxBXwBvF9NyGnt5mvOB-165" source="NFxBXwBvF9NyGnt5mvOB-188" target="NFxBXwBvF9NyGnt5mvOB-191">
          <mxGeometry relative="1" as="geometry" />
        </mxCell>
        <mxCell id="NFxBXwBvF9NyGnt5mvOB-188" value="อัพเดทข้อมูล" style="rounded=1;whiteSpace=wrap;html=1;" vertex="1" parent="NFxBXwBvF9NyGnt5mvOB-165">
          <mxGeometry x="315" y="140" width="170" height="80" as="geometry" />
        </mxCell>
        <mxCell id="NFxBXwBvF9NyGnt5mvOB-205" value="" style="edgeStyle=orthogonalEdgeStyle;rounded=0;orthogonalLoop=1;jettySize=auto;html=1;strokeColor=default;" edge="1" parent="NFxBXwBvF9NyGnt5mvOB-165" source="NFxBXwBvF9NyGnt5mvOB-191" target="NFxBXwBvF9NyGnt5mvOB-193">
          <mxGeometry relative="1" as="geometry" />
        </mxCell>
        <mxCell id="NFxBXwBvF9NyGnt5mvOB-191" value="นำไปแสดงผล" style="rounded=1;whiteSpace=wrap;html=1;" vertex="1" parent="NFxBXwBvF9NyGnt5mvOB-165">
          <mxGeometry x="340" y="270" width="120" height="60" as="geometry" />
        </mxCell>
        <mxCell id="NFxBXwBvF9NyGnt5mvOB-193" value="end" style="ellipse;whiteSpace=wrap;html=1;" vertex="1" parent="NFxBXwBvF9NyGnt5mvOB-165">
          <mxGeometry x="350" y="410" width="100" height="80" as="geometry" />
        </mxCell>
      </root>
    </mxGraphModel>
  </diagram>
</mxfile>
